<?xml version="1.0" encoding="UTF-8" standalone="no"?>
<svg width="378px" height="85px" viewBox="0 0 378 85" version="1.1" xmlns="http://www.w3.org/2000/svg" xmlns:xlink="http://www.w3.org/1999/xlink">
    <!-- Generator: Sketch 41.2 (35397) - http://www.bohemiancoding.com/sketch -->
    <title>Group 5</title>
    <desc>Created with Sketch.</desc>
    <defs></defs>
    <g id="Page-1" stroke="none" stroke-width="1" fill="none" fill-rule="evenodd">
        <g id="Redux" transform="translate(-37.000000, -47.000000)">
            <g id="Group-5" transform="translate(37.000000, 47.000000)">
                <rect id="Rectangle" fill="#FFFFFF" opacity="0.220149254" x="0" y="1" width="378" height="84" rx="3"></rect>
                <g id="Group-4" transform="translate(308.000000, 43.000000) rotate(-90.000000) translate(-308.000000, -43.000000) translate(266.000000, 31.000000)">
                    <rect id="Rectangle" fill="#9B9B9B" opacity="0.220149254" x="0" y="0" width="84" height="24" rx="3"></rect>
                    <text id="Middleware" font-family=".SFNSText-Regular, .SF NS Text" font-size="10" font-weight="normal" fill="#FFFFFF">
                        <tspan x="14.8955078" y="16.4">Middleware</tspan>
                    </text>
                </g>
                <g id="Group-4" transform="translate(337.000000, 43.000000) rotate(-90.000000) translate(-337.000000, -43.000000) translate(295.000000, 31.000000)">
                    <rect id="Rectangle" fill="#9B9B9B" opacity="0.220149254" x="0" y="0" width="84" height="24" rx="3"></rect>
                    <text id="Middleware" font-family=".SFNSText-Regular, .SF NS Text" font-size="10" font-weight="normal" fill="#FFFFFF">
                        <tspan x="14.8955078" y="16.4">Middleware</tspan>
                    </text>
                </g>
                <g id="Group-4" transform="translate(366.000000, 43.000000) rotate(-90.000000) translate(-366.000000, -43.000000) translate(324.000000, 31.000000)">
                    <rect id="Rectangle" fill="#9B9B9B" opacity="0.220149254" x="0" y="0" width="84" height="24" rx="3"></rect>
                    <text id="Middleware" font-family=".SFNSText-Regular, .SF NS Text" font-size="10" font-weight="normal" fill="#FFFFFF">
                        <tspan x="14.8955078" y="16.4">Middleware</tspan>
                    </text>
                </g>
                <g id="Group-4" transform="translate(154.000000, 1.000000)">
                    <g id="Group-6">
                        <rect id="Rectangle" fill="#9B9B9B" opacity="0.220149254" x="0" y="0" width="84" height="24" rx="3"></rect>
                        <text id="Reducer" font-family=".SFNSText-Regular, .SF NS Text" font-size="10" font-weight="normal" fill="#FFFFFF">
                            <tspan x="22.4003906" y="16.4">Reducer</tspan>
                        </text>
                    </g>
                </g>
                <g id="Group-4" transform="translate(154.000000, 31.000000)">
                    <g id="Group-6">
                        <rect id="Rectangle" fill="#9B9B9B" opacity="0.220149254" x="0" y="0" width="84" height="24" rx="3"></rect>
                        <text id="Reducer" font-family=".SFNSText-Regular, .SF NS Text" font-size="10" font-weight="normal" fill="#FFFFFF">
                            <tspan x="22.4003906" y="16.4">Reducer</tspan>
                        </text>
                    </g>
                </g>
                <g id="Group-4" transform="translate(154.000000, 61.000000)">
                    <g id="Group-6">
                        <rect id="Rectangle" fill="#9B9B9B" opacity="0.220149254" x="0" y="0" width="84" height="24" rx="3"></rect>
                        <text id="Reducer" font-family=".SFNSText-Regular, .SF NS Text" font-size="10" font-weight="normal" fill="#FFFFFF">
                            <tspan x="22.4003906" y="16.4">Reducer</tspan>
                        </text>
                    </g>
                </g>
                <g id="Group-4" transform="translate(52.000000, 42.000000) rotate(-90.000000) translate(-52.000000, -42.000000) translate(10.000000, -10.000000)">
                    <g id="Group-6">
                        <rect id="Rectangle" fill="#9B9B9B" opacity="0.220149254" x="0" y="0" width="84" height="104" rx="3"></rect>
                        <text id="State" transform="translate(42.000000, 51.500000) rotate(90.000000) translate(-42.000000, -51.500000) " font-family=".SFNSText-Regular, .SF NS Text" font-size="12" font-weight="normal" fill="#FFFFFF">
                            <tspan x="27.1230469" y="56">State</tspan>
                        </text>
                    </g>
                </g>
                <path d="M147.5,73.5 L108.5,73.5" id="Line" stroke="#FFFFFF" stroke-linecap="square" fill="#FFFFFF"></path>
                <path id="Line-decoration-1" d="M108.5,73.5 L119.3,76.5 L119.3,70.5 L108.5,73.5 Z" stroke="#FFFFFF" stroke-linecap="square" fill="#FFFFFF"></path>
                <path d="M147.5,43.5 L108.5,43.5" id="Line" stroke="#FFFFFF" stroke-linecap="square" fill="#FFFFFF"></path>
                <path id="Line-decoration-1" d="M108.5,43.5 L119.3,46.5 L119.3,40.5 L108.5,43.5 Z" stroke="#FFFFFF" stroke-linecap="square" fill="#FFFFFF"></path>
                <path d="M291.5,43.5 L242.5,43.5" id="Line" stroke="#FFFFFF" stroke-linecap="square" fill="#FFFFFF"></path>
                <path id="Line-decoration-1" d="M242.5,43.5 L253.3,46.5 L253.3,40.5 L242.5,43.5 Z" stroke="#FFFFFF" stroke-linecap="square" fill="#FFFFFF"></path>
                <path d="M291.5,43.5 L242.5,73.5" id="Line" stroke="#FFFFFF" stroke-linecap="square" fill="#FFFFFF"></path>
                <path id="Line-decoration-1" d="M242.5,73.5 L253.277256,70.4192922 L250.144333,65.3021844 L242.5,73.5 Z" stroke="#FFFFFF" stroke-linecap="square" fill="#FFFFFF"></path>
                <path d="M291.5,43.5 L242.5,13.5" id="Line" stroke="#FFFFFF" stroke-linecap="square" fill="#FFFFFF"></path>
                <path id="Line-decoration-1" d="M242.5,13.5 L250.144333,21.6978156 L253.277256,16.5807078 L242.5,13.5 Z" stroke="#FFFFFF" stroke-linecap="square" fill="#FFFFFF"></path>
                <path d="M147.5,13.5 L108.5,13.5" id="Line" stroke="#FFFFFF" stroke-linecap="square" fill="#FFFFFF"></path>
                <path id="Line-decoration-1" d="M108.5,13.5 L119.3,16.5 L119.3,10.5 L108.5,13.5 Z" stroke="#FFFFFF" stroke-linecap="square" fill="#FFFFFF"></path>
            </g>
        </g>
    </g>
</svg>