<?xml version="1.0" encoding="UTF-8" standalone="no"?>
<svg width="212px" height="233px" viewBox="0 0 212 233" version="1.1" xmlns="http://www.w3.org/2000/svg" xmlns:xlink="http://www.w3.org/1999/xlink">
    <!-- Generator: Sketch 41.2 (35397) - http://www.bohemiancoding.com/sketch -->
    <title>Group 3</title>
    <desc>Created with Sketch.</desc>
    <defs>
        <rect id="path-1" x="157" y="107" width="15" height="26" rx="7.5"></rect>
        <mask id="mask-2" maskContentUnits="userSpaceOnUse" maskUnits="objectBoundingBox" x="0" y="0" width="15" height="26" fill="white">
            <use xlink:href="#path-1"></use>
        </mask>
        <rect id="path-3" x="0" y="0" width="26" height="17" rx="3"></rect>
        <mask id="mask-4" maskContentUnits="userSpaceOnUse" maskUnits="objectBoundingBox" x="0" y="0" width="26" height="17" fill="white">
            <use xlink:href="#path-3"></use>
        </mask>
    </defs>
    <g id="Page-1" stroke="none" stroke-width="1" fill="none" fill-rule="evenodd">
        <g id="Group-3" transform="translate(1.000000, -4.000000)">
            <g id="Group-2" transform="translate(44.000000, 0.000000)">
                <text id="Computer" font-family="OpenSans-Semibold, Open Sans" font-size="16" font-weight="500" fill="#FFFFFF">
                    <tspan x="21.1289062" y="17">Computer</tspan>
                </text>
                <text id="Interface" font-family="OpenSans-Light, Open Sans" font-size="14" font-weight="300" fill="#FFFFFF">
                    <tspan x="33.722168" y="116">Interface</tspan>
                </text>
                <text id="Human" font-family="OpenSans-Semibold, Open Sans" font-size="16" font-weight="500" fill="#FFFFFF">
                    <tspan x="31.546875" y="236">Human</tspan>
                </text>
                <g id="Group" transform="translate(45.000000, 32.000000)" stroke-width="2">
                    <circle id="Oval" stroke="#766F93" fill="#D2CDE6" cx="15" cy="15" r="15"></circle>
                    <circle id="Oval" stroke="#48703A" fill="#84FC43" cx="15" cy="166" r="15"></circle>
                </g>
                <g id="Arrow" transform="translate(0.000000, 66.000000)">
                    <g>
                        <g>
                            <path d="M39.5,111.547826 L23.5,103.547826 L39.5,95.5478261 C39.5,95.5478261 36.6890788,99.4341965 36.6890788,103.469192 C36.6890788,107.504188 39.5,111.547826 39.5,111.547826 Z" id="Arrowhead" fill="#D2CDE6" transform="translate(31.500000, 103.547826) rotate(-140.929993) translate(-31.500000, -103.547826) "></path>
                            <path d="M34.5,0.452173913 C34.5,0.452173913 0.5,20.373913 0.5,53.5478261 C0.5,86.7217391 31.5,103.547826 31.5,103.547826" id="Line" stroke="#D2CDE6" stroke-linecap="square"></path>
                        </g>
                    </g>
                </g>
                <g id="Arrow" transform="translate(100.500000, 116.500000) scale(-1, -1) translate(-100.500000, -116.500000) translate(79.000000, 59.000000)">
                    <g>
                        <g>
                            <path d="M39.5,111.547826 L23.5,103.547826 L39.5,95.5478261 C39.5,95.5478261 36.6890788,99.4341965 36.6890788,103.469192 C36.6890788,107.504188 39.5,111.547826 39.5,111.547826 Z" id="Arrowhead" fill="#84FC43" transform="translate(31.500000, 103.547826) rotate(-140.929993) translate(-31.500000, -103.547826) "></path>
                            <path d="M34.5,0.452173913 C34.5,0.452173913 0.5,20.373913 0.5,53.5478261 C0.5,86.7217391 31.5,103.547826 31.5,103.547826" id="Line" stroke="#84FC43" stroke-linecap="square"></path>
                        </g>
                    </g>
                </g>
            </g>
            <ellipse id="Oval-2" fill="#24242D" cx="164" cy="120.5" rx="14" ry="19.5"></ellipse>
            <ellipse id="Oval-2" fill="#24242D" cx="45" cy="120.5" rx="14" ry="19.5"></ellipse>
            <path d="M0,121 L210,121" id="Line" stroke="#FFFFFF" stroke-linecap="square" opacity="0.195545709"></path>
            <use id="Rectangle-2" stroke="#FFFFFF" mask="url(#mask-2)" stroke-width="2" fill="#2A2833" xlink:href="#path-1"></use>
            <rect id="Rectangle-3" fill="#D8D8D8" x="164" y="112" width="1" height="6" rx="0.5"></rect>
            <g id="Group-4" transform="translate(33.000000, 111.000000)">
                <rect id="Rectangle-6" fill="#FFFFFF" x="11" y="17" width="4" height="3"></rect>
                <use id="Rectangle-4" stroke="#FFFFFF" mask="url(#mask-4)" stroke-width="2" fill="#2A2833" xlink:href="#path-3"></use>
                <rect id="Rectangle-5" fill="#FFFFFF" x="6" y="19" width="14" height="1" rx="0.5"></rect>
            </g>
        </g>
    </g>
</svg>